<svg width="544" height="236" viewBox="0 0 544 236" fill="none" xmlns="http://www.w3.org/2000/svg">
<path opacity="0.1" fill-rule="evenodd" clip-rule="evenodd" d="M184.942 6.23361C441.796 69.6017 488.036 224.524 469.304 298.62C443.147 402.078 354.543 426.538 318.324 425.393C282.105 424.248 244.67 457.011 297.942 482.819C351.213 508.628 492.701 670.8 454.887 820.37C420.262 957.325 269.057 972.09 151.686 940.109C-167.879 853.264 -318.563 371.484 -467.101 277.896C-356.182 251.599 -124.163 -70.1275 184.969 6.1275L184.942 6.23361ZM522.412 888.04C553.513 765.024 500.742 598.519 374.23 475.57C433.965 464.436 513.914 393.477 539.346 292.881C559.848 211.789 517.507 -39.2952 195.114 -114.956C-220.957 -212.603 -414.151 194.481 -565.544 250.469C-575.909 254.269 -587.534 271.809 -568.079 284.123C-385.086 400.059 -293.725 987.396 114.095 1083.11C342.809 1136.78 491.312 1011.06 522.412 888.04V888.04Z" fill="white"/>
</svg>
