<svg width="625" height="236" viewBox="0 0 625 236" fill="none" xmlns="http://www.w3.org/2000/svg">
<path opacity="0.1" fill-rule="evenodd" clip-rule="evenodd" d="M-304.072 180.293C-190.686 -18.7318 -50.7173 -20.7039 6.58957 12.3822C86.606 58.5797 86.0786 138.163 76.5799 168.066C67.0813 197.968 85.5433 236.883 119.611 198.593C153.68 160.303 322.158 80.6954 437.838 147.483C543.761 208.638 520.389 338.084 466.057 428.317C318.318 674.046 -118.583 685.913 -231.591 787.575C-227.33 688.969 -440.61 419.781 -304.154 180.245L-304.072 180.293ZM510.142 107.195C414.999 52.2644 263.841 56.9446 131.57 133.33C136.387 80.9405 96.1357 -2.40226 18.3329 -47.3217C-44.3849 -83.5319 -263.542 -107.495 -402.631 143.228C-582.136 466.803 -288.588 723.785 -277.664 863.113C-276.943 872.644 -265.074 886.467 -250.226 873.164C-110.473 748.072 400.368 810.527 576.313 493.368C674.987 315.498 605.284 162.125 510.142 107.195V107.195Z" fill="white"/>
</svg>
