<?xml version="1.0" standalone="no"?>
<!DOCTYPE svg PUBLIC "-//W3C//DTD SVG 20010904//EN"
 "http://www.w3.org/TR/2001/REC-SVG-20010904/DTD/svg10.dtd">
<svg version="1.0" xmlns="http://www.w3.org/2000/svg"
 width="350.000000pt" height="152.000000pt" viewBox="0 0 350.000000 152.000000"
 preserveAspectRatio="xMidYMid meet">

<g transform="translate(0.000000,152.000000) scale(0.100000,-0.100000)"
fill="#000000" stroke="none">
<path d="M0 760 l0 -760 1750 0 1750 0 0 760 0 760 -1750 0 -1750 0 0 -760z
m2053 636 c44 -18 94 -77 108 -128 16 -61 6 -145 -26 -214 -22 -47 -57 -88
-174 -204 -81 -80 -153 -156 -162 -169 l-15 -24 -45 32 c-24 17 -77 55 -118
84 -124 86 -180 196 -166 321 3 34 14 79 24 102 24 53 85 111 131 125 46 14
109 -2 141 -35 l23 -24 45 51 c48 53 126 97 174 97 15 0 42 -6 60 -14z m659
-6 c33 -25 58 -79 58 -122 0 -41 -15 -58 -50 -58 -14 0 -31 5 -38 12 -14 14
-17 188 -3 188 4 0 20 -9 33 -20z m-2241 -70 c21 -12 26 -54 8 -66 -6 -3 -45
-15 -87 -25 -43 -11 -97 -32 -121 -47 -42 -26 -109 -97 -100 -106 2 -2 64 1
137 7 117 9 135 9 149 -6 26 -26 8 -45 -81 -86 -46 -21 -104 -57 -129 -80
-106 -98 -101 -198 9 -194 58 2 115 30 197 98 36 30 69 55 72 55 11 0 4 -36
-14 -75 -54 -117 -200 -183 -304 -137 -115 51 -115 190 -1 312 l46 49 -59 3
c-56 3 -58 4 -61 33 -8 64 41 156 111 209 68 52 183 80 228 56z m170 -150 c24
-13 24 -34 -1 -155 -29 -139 -26 -195 9 -195 41 0 81 134 81 273 0 65 3 87 13
87 32 0 74 -155 64 -238 -13 -113 -87 -232 -142 -232 -43 0 -85 48 -101 115
-26 111 -11 298 27 336 22 22 24 22 50 9z m451 0 c44 -12 68 -42 68 -84 0 -42
-72 -111 -132 -126 l-45 -12 29 -31 c44 -48 148 -221 139 -230 -18 -18 -71 25
-142 114 l-73 92 -13 -62 c-15 -73 -32 -113 -52 -119 -12 -4 -13 14 -7 113 5
85 4 121 -5 131 -9 12 -9 17 3 27 9 7 18 28 22 47 5 29 3 38 -16 52 -19 14
-21 21 -12 35 14 24 55 43 112 53 68 11 83 11 124 0z m252 -6 c11 -10 13 -21
7 -31 -6 -11 0 -30 20 -61 84 -132 82 -290 -5 -343 -37 -23 -65 -24 -112 -4
-27 11 -40 27 -60 70 -23 49 -26 67 -23 139 3 68 9 93 34 141 29 56 80 105
111 105 7 0 20 -7 28 -16z m930 -54 c6 -26 5 -62 -1 -98 -13 -71 -96 -295
-111 -300 -17 -5 -35 77 -28 130 4 26 22 98 41 160 19 62 35 125 35 139 0 35
9 42 34 25 12 -7 25 -31 30 -56z m257 60 c11 -6 19 -21 19 -35 0 -28 -26 -45
-70 -45 -48 0 -100 -26 -100 -49 0 -27 40 -47 110 -55 63 -8 72 -12 89 -43 24
-46 -25 -103 -146 -169 -37 -20 -90 -50 -116 -66 -56 -33 -76 -29 -51 10 31
50 69 84 157 143 48 33 87 64 87 69 0 6 -12 10 -26 10 -48 0 -114 22 -139 47
-29 30 -33 78 -10 122 26 52 144 88 196 61z m174 -12 c30 -26 49 -95 40 -142
-12 -62 -77 -291 -85 -299 -4 -5 -15 2 -24 14 -21 30 -21 121 0 230 8 46 15
111 14 144 -1 33 -2 63 -1 68 2 14 30 7 56 -15z m239 10 c16 1 37 -3 48 -9 18
-10 18 -12 4 -34 -14 -21 -12 -28 27 -105 36 -70 42 -91 42 -144 0 -95 -47
-155 -129 -163 -56 -6 -104 22 -134 78 -21 38 -23 54 -20 124 5 85 23 134 73
193 15 18 24 36 20 42 -10 16 5 32 24 24 9 -4 29 -7 45 -6z m286 -19 c0 -14 5
-19 14 -16 49 19 82 18 116 -5 58 -39 61 -53 55 -247 -3 -96 -7 -176 -9 -178
-7 -7 -44 45 -55 77 -7 19 -15 80 -18 135 -6 120 -18 145 -69 145 -19 0 -37
-6 -39 -13 -3 -6 -14 -68 -24 -137 -18 -123 -41 -200 -60 -200 -5 0 -15 32
-21 72 -14 80 -7 202 16 278 24 80 94 146 94 89z m-2421 -618 c8 -5 11 -16 8
-25 -5 -13 -11 -14 -33 -6 -20 8 -30 7 -38 -1 -7 -7 -7 -13 -1 -15 54 -21 80
-41 83 -67 3 -23 -2 -30 -28 -41 -36 -15 -74 -11 -91 10 -16 20 -2 36 21 24
27 -14 60 -12 60 3 0 8 -18 19 -40 26 -48 14 -63 50 -35 81 19 21 69 27 94 11z
m209 -11 c66 -62 9 -170 -81 -153 -36 7 -67 48 -67 88 0 71 96 113 148 65z
m148 -31 l39 -50 3 51 c3 42 6 51 20 48 14 -3 18 -18 20 -86 3 -80 2 -82 -20
-82 -16 0 -34 16 -60 52 l-38 52 0 -52 c0 -45 -3 -52 -20 -52 -18 0 -20 7 -20
85 0 77 2 85 19 85 11 0 35 -21 57 -51z m273 38 c16 -20 -6 -38 -33 -28 -48
19 -85 -24 -62 -71 13 -25 66 -33 74 -10 2 7 -5 12 -18 12 -15 0 -20 5 -18 18
2 12 14 18 41 20 l37 3 0 -41 c0 -37 -3 -42 -34 -55 -100 -42 -183 79 -99 145
29 23 95 27 112 7z m285 7 c18 -7 21 -30 6 -39 -5 -3 -19 -1 -30 5 -48 26 -93
-45 -54 -84 18 -19 28 -20 56 -5 14 8 23 8 31 0 19 -19 -12 -41 -58 -41 -35 0
-48 5 -64 26 -61 77 19 174 113 138z m204 -14 c66 -62 9 -170 -81 -153 -36 7
-67 48 -67 88 0 71 96 113 148 65z m149 -31 l38 -50 3 51 c3 42 6 51 20 48 14
-3 18 -18 20 -86 3 -77 1 -82 -17 -82 -13 0 -36 20 -61 51 l-40 51 0 -51 c0
-44 -3 -51 -20 -51 -18 0 -20 7 -20 85 0 78 2 85 20 85 12 0 34 -20 57 -51z
m263 31 c0 -15 -7 -20 -25 -20 -24 0 -25 -2 -25 -65 0 -58 -2 -65 -20 -65 -18
0 -20 7 -20 64 0 63 -1 65 -27 68 -17 2 -29 10 -31 21 -3 15 6 17 72 17 69 0
76 -2 76 -20z m170 0 c0 -17 -7 -20 -45 -20 -33 0 -45 -4 -45 -15 0 -11 11
-15 40 -15 29 0 40 -4 40 -15 0 -11 -11 -15 -40 -15 -33 0 -40 -3 -40 -20 0
-17 7 -20 45 -20 33 0 45 -4 45 -15 0 -12 -14 -15 -65 -15 l-65 0 0 85 0 85
65 0 c58 0 65 -2 65 -20z m151 9 c16 -8 18 -13 9 -24 -9 -11 -17 -11 -36 -3
-18 9 -27 9 -36 0 -8 -8 0 -16 35 -31 40 -17 47 -24 47 -49 0 -39 -17 -52 -66
-52 -47 0 -73 20 -50 39 10 8 16 9 21 1 9 -15 55 -12 55 3 0 7 -16 19 -35 26
-47 17 -62 45 -40 77 17 26 61 32 96 13z m197 -6 c-2 -11 -14 -19 -31 -21 -26
-3 -27 -5 -27 -68 0 -50 -3 -64 -15 -64 -12 0 -15 14 -15 64 0 63 -1 65 -27
68 -17 2 -29 10 -31 21 -3 15 6 17 73 17 67 0 76 -2 73 -17z m-2087 -273 c5 0
9 -3 9 -8 0 -4 -12 -7 -27 -7 -41 0 -41 -18 0 -38 38 -19 47 -43 25 -65 -16
-16 -50 -15 -74 2 -17 14 -16 15 23 13 53 -3 57 13 9 36 -23 11 -36 24 -36 37
0 21 28 42 48 35 8 -3 18 -5 23 -5z m169 -45 c7 -25 16 -45 20 -45 4 0 13 20
20 45 7 25 16 45 20 45 5 0 -1 -29 -13 -65 -12 -36 -24 -65 -28 -65 -4 0 -15
23 -24 50 -9 28 -18 50 -20 50 -2 0 -11 -23 -20 -51 -10 -28 -20 -47 -24 -42
-16 17 -50 123 -40 123 5 0 14 -12 19 -27 26 -71 26 -71 44 -15 10 29 21 50
25 47 5 -2 14 -25 21 -50z m970 -12 c30 -65 34 -96 8 -54 -18 29 -73 29 -88 0
-7 -11 -14 -18 -17 -15 -6 6 53 136 61 136 3 0 19 -30 36 -67z m542 43 c12
-18 10 -23 -23 -61 l-31 -35 32 0 c18 0 29 -4 25 -10 -7 -11 -85 -14 -85 -3 0
4 16 24 36 44 23 24 34 43 31 53 -7 19 -38 21 -55 4 -9 -9 -12 -9 -12 0 0 29
64 36 82 8z m129 6 c48 -40 13 -133 -45 -118 -43 11 -53 86 -14 119 25 21 30
21 59 -1z m133 2 c23 -22 20 -34 -16 -71 l-32 -33 32 0 c18 0 32 -4 32 -10 0
-5 -20 -10 -45 -10 -25 0 -45 4 -45 8 0 5 16 23 35 41 19 17 35 38 35 47 0 19
-28 30 -43 15 -20 -20 -31 -12 -12 9 22 24 38 25 59 4z m141 6 c4 -6 -8 -10
-29 -10 -30 0 -36 -4 -36 -21 0 -11 4 -18 9 -15 5 4 21 2 35 -4 18 -6 26 -17
26 -34 0 -33 -23 -49 -60 -41 -42 9 -38 25 6 18 33 -6 36 -4 32 18 -2 18 -10
25 -33 27 -29 3 -31 5 -27 37 4 32 7 35 38 35 18 0 36 -4 39 -10z m-1785 -65
c0 -37 -4 -65 -10 -65 -6 0 -10 28 -10 65 0 37 4 65 10 65 6 0 10 -28 10 -65z
m128 58 c-27 -4 -28 -7 -30 -66 l-2 -62 -3 62 c-4 58 -5 62 -31 66 -15 2 0 4
33 4 33 0 48 -2 33 -4z m152 1 c0 -4 -16 -26 -35 -50 -19 -23 -35 -45 -35 -48
0 -3 16 -6 35 -6 19 0 35 -4 35 -10 0 -5 -22 -10 -50 -10 -27 0 -50 4 -50 9 0
4 18 31 40 59 l41 51 -43 4 c-42 3 -41 4 10 5 28 1 52 -1 52 -4z m103 -1 c-35
-3 -43 -8 -43 -24 0 -15 7 -19 35 -19 19 0 35 -4 35 -10 0 -5 -16 -10 -35 -10
-28 0 -35 -4 -35 -20 0 -17 7 -20 40 -20 22 0 40 -4 40 -10 0 -5 -20 -10 -45
-10 l-45 0 0 65 0 65 48 -2 47 -1 -42 -4z m185 -26 c2 -18 -2 -29 -13 -33 -14
-6 -14 -8 0 -31 22 -34 12 -40 -13 -9 -27 35 -59 34 -65 -1 -2 -16 -5 3 -6 40
l-1 68 48 -3 c43 -3 47 -5 50 -31z m102 -77 c22 0 40 -4 40 -10 0 -5 -20 -10
-45 -10 l-45 0 2 68 2 67 3 -57 4 -58 39 0z m297 63 l38 -46 6 49 c6 48 6 47
7 -18 1 -38 0 -68 -2 -68 -2 0 -23 23 -45 51 l-41 52 0 -46 c0 -25 -4 -49 -10
-52 -6 -4 -10 18 -10 59 0 36 4 66 9 66 5 0 27 -21 48 -47z m207 25 c22 -32
20 -55 -9 -83 -16 -17 -35 -25 -60 -25 l-35 0 0 65 0 65 44 0 c35 0 48 -5 60
-22z"/>
<path d="M1894 1331 c-37 -23 -93 -88 -100 -118 -9 -32 -29 -28 -44 7 -16 40
-46 60 -88 60 -44 0 -79 -24 -105 -74 -17 -33 -22 -58 -22 -126 0 -120 28
-167 171 -288 69 -59 72 -60 82 -39 5 12 56 72 112 132 127 138 174 224 174
318 -1 67 -21 119 -53 137 -31 16 -93 12 -127 -9z m-66 -219 l3 -42 45 0 44 0
0 -39 c0 -39 0 -40 -44 -46 l-45 -7 -3 -47 -3 -46 -42 -3 -43 -3 0 47 0 46
-45 -6 -45 -7 0 45 0 45 43 3 42 3 3 47 c3 44 5 47 35 51 49 6 52 4 55 -41z"/>
<path d="M998 1098 c-27 -6 -48 -16 -48 -23 0 -7 -3 -27 -7 -45 l-6 -33 43 7
c50 8 105 39 121 67 21 39 -8 47 -103 27z"/>
<path d="M1283 1023 c-37 -76 -40 -180 -6 -214 28 -28 67 -19 88 21 22 42 19
131 -6 185 -34 73 -43 74 -76 8z"/>
<path d="M2911 1027 c-49 -80 -63 -164 -36 -217 44 -84 143 -9 133 101 -5 49
-45 141 -64 147 -7 1 -21 -12 -33 -31z"/>
<path d="M942 499 c-27 -10 -36 -31 -28 -64 9 -35 51 -44 78 -17 39 38 1 100
-50 81z"/>
<path d="M1852 499 c-27 -10 -36 -31 -28 -64 8 -33 50 -44 77 -19 40 37 2 103
-49 83z"/>
<path d="M1862 205 c-16 -35 -16 -35 13 -35 28 0 30 5 12 38 l-13 23 -12 -26z"/>
<path d="M2520 219 c-15 -27 -9 -59 13 -73 37 -23 71 29 47 73 -14 27 -46 27
-60 0z"/>
<path d="M1550 215 c0 -22 4 -25 34 -25 19 0 38 5 41 10 11 18 -15 40 -46 40
-24 0 -29 -4 -29 -25z"/>
<path d="M2160 190 c0 -48 1 -50 28 -50 35 0 52 16 52 52 0 29 -23 48 -59 48
-18 0 -21 -6 -21 -50z"/>
</g>
</svg>
